<svg width="1440" height="1024" viewBox="0 0 1440 1024" fill="none" xmlns="http://www.w3.org/2000/svg">
<g opacity="0.09" clip-path="url(#clip0_1278_3173)">
<path d="M0 0L58.24 24.4608L116.48 0L174.72 24.4608L232.96 0L291.2 24.4608L349.434 0L407.674 24.4608L465.914 0L524.154 24.4608L582.394 0L640.634 24.4608L698.874 0L757.12 24.4608" stroke="#A0A3BD" stroke-width="1.0192" stroke-miterlimit="10"/>
<path d="M0 391.955L58.24 416.416L116.48 391.955L174.72 416.416L232.96 391.955L291.2 416.416L349.434 391.955L407.674 416.416L465.914 391.955L524.154 416.416L582.394 391.955L640.634 416.416L698.874 391.955L757.12 416.416" stroke="#A0A3BD" stroke-width="1.0192" stroke-miterlimit="10"/>
<path d="M0 783.91L58.24 808.371L116.48 783.91L174.72 808.371L232.96 783.91L291.2 808.371L349.434 783.91L407.674 808.371L465.914 783.91L524.154 808.371L582.394 783.91L640.634 808.371L698.874 783.91L757.12 808.371" stroke="#A0A3BD" stroke-width="1.0192" stroke-miterlimit="10"/>
<path d="M0 195.978L58.24 220.438L116.48 195.978L174.72 220.438L232.96 195.978L291.2 220.438L349.434 195.978L407.674 220.438L465.914 195.978L524.154 220.438L582.394 195.978L640.634 220.438L698.874 195.978L757.12 220.438" stroke="#A0A3BD" stroke-width="1.0192" stroke-miterlimit="10"/>
<path d="M0 587.933L58.24 612.394L116.48 587.933L174.72 612.394L232.96 587.933L291.2 612.394L349.434 587.933L407.674 612.394L465.914 587.933L524.154 612.394L582.394 587.933L640.634 612.394L698.874 587.933L757.12 612.394" stroke="#A0A3BD" stroke-width="1.0192" stroke-miterlimit="10"/>
<path d="M0 979.888L58.24 1004.35L116.48 979.888L174.72 1004.35L232.96 979.888L291.2 1004.35L349.434 979.888L407.674 1004.35L465.914 979.888L524.154 1004.35L582.394 979.888L640.634 1004.35L698.874 979.888L757.12 1004.35" stroke="#A0A3BD" stroke-width="1.0192" stroke-miterlimit="10"/>
<path d="M0 97.9888L58.24 122.45L116.48 97.9888L174.72 122.45L232.96 97.9888L291.2 122.45L349.434 97.9888L407.674 122.45L465.914 97.9888L524.154 122.45L582.394 97.9888L640.634 122.45L698.874 97.9888L757.12 122.45" stroke="#A0A3BD" stroke-width="1.0192" stroke-miterlimit="10"/>
<path d="M0 489.944L58.24 514.405L116.48 489.944L174.72 514.405L232.96 489.944L291.2 514.405L349.434 489.944L407.674 514.405L465.914 489.944L524.154 514.405L582.394 489.944L640.634 514.405L698.874 489.944L757.12 514.405" stroke="#A0A3BD" stroke-width="1.0192" stroke-miterlimit="10"/>
<path d="M0 881.899L58.24 906.36L116.48 881.899L174.72 906.36L232.96 881.899L291.2 906.36L349.434 881.899L407.674 906.36L465.914 881.899L524.154 906.36L582.394 881.899L640.634 906.36L698.874 881.899L757.12 906.36" stroke="#A0A3BD" stroke-width="1.0192" stroke-miterlimit="10"/>
<path d="M0 293.966L58.24 318.427L116.48 293.966L174.72 318.427L232.96 293.966L291.2 318.427L349.434 293.966L407.674 318.427L465.914 293.966L524.154 318.427L582.394 293.966L640.634 318.427L698.874 293.966L757.12 318.427" stroke="#A0A3BD" stroke-width="1.0192" stroke-miterlimit="10"/>
<path d="M0 685.922L58.24 710.382L116.48 685.922L174.72 710.382L232.96 685.922L291.2 710.382L349.434 685.922L407.674 710.382L465.914 685.922L524.154 710.382L582.394 685.922L640.634 710.382L698.874 685.922L757.12 710.382" stroke="#A0A3BD" stroke-width="1.0192" stroke-miterlimit="10"/>
<path d="M0 48.9216L58.24 73.3824L116.48 48.9216L174.72 73.3824L232.96 48.9216L291.2 73.3824L349.434 48.9216L407.674 73.3824L465.914 48.9216L524.154 73.3824L582.394 48.9216L640.634 73.3824L698.874 48.9216L757.12 73.3824" stroke="#A0A3BD" stroke-width="1.0192" stroke-miterlimit="10"/>
<path d="M0 440.877L58.24 465.338L116.48 440.877L174.72 465.338L232.96 440.877L291.2 465.338L349.434 440.877L407.674 465.338L465.914 440.877L524.154 465.338L582.394 440.877L640.634 465.338L698.874 440.877L757.12 465.338" stroke="#A0A3BD" stroke-width="1.0192" stroke-miterlimit="10"/>
<path d="M0 832.832L58.24 857.293L116.48 832.832L174.72 857.293L232.96 832.832L291.2 857.293L349.434 832.832L407.674 857.293L465.914 832.832L524.154 857.293L582.394 832.832L640.634 857.293L698.874 832.832L757.12 857.293" stroke="#A0A3BD" stroke-width="1.0192" stroke-miterlimit="10"/>
<path d="M0 244.899L58.24 269.36L116.48 244.899L174.72 269.36L232.96 244.899L291.2 269.36L349.434 244.899L407.674 269.36L465.914 244.899L524.154 269.36L582.394 244.899L640.634 269.36L698.874 244.899L757.12 269.36" stroke="#A0A3BD" stroke-width="1.0192" stroke-miterlimit="10"/>
<path d="M0 636.854L58.24 661.315L116.48 636.854L174.72 661.315L232.96 636.854L291.2 661.315L349.434 636.854L407.674 661.315L465.914 636.854L524.154 661.315L582.394 636.854L640.634 661.315L698.874 636.854L757.12 661.315" stroke="#A0A3BD" stroke-width="1.0192" stroke-miterlimit="10"/>
<path d="M0 146.91L58.24 171.371L116.48 146.91L174.72 171.371L232.96 146.91L291.2 171.371L349.434 146.91L407.674 171.371L465.914 146.91L524.154 171.371L582.394 146.91L640.634 171.371L698.874 146.91L757.12 171.371" stroke="#A0A3BD" stroke-width="1.0192" stroke-miterlimit="10"/>
<path d="M0 538.865L58.24 563.326L116.48 538.865L174.72 563.326L232.96 538.865L291.2 563.326L349.434 538.865L407.674 563.326L465.914 538.865L524.154 563.326L582.394 538.865L640.634 563.326L698.874 538.865L757.12 563.326" stroke="#A0A3BD" stroke-width="1.0192" stroke-miterlimit="10"/>
<path d="M0 930.821L58.24 955.282L116.48 930.821L174.72 955.282L232.96 930.821L291.2 955.282L349.434 930.821L407.674 955.282L465.914 930.821L524.154 955.282L582.394 930.821L640.634 955.282L698.874 930.821L757.12 955.282" stroke="#A0A3BD" stroke-width="1.0192" stroke-miterlimit="10"/>
<path d="M0 342.888L58.24 367.349L116.48 342.888L174.72 367.349L232.96 342.888L291.2 367.349L349.434 342.888L407.674 367.349L465.914 342.888L524.154 367.349L582.394 342.888L640.634 367.349L698.874 342.888L757.12 367.349" stroke="#A0A3BD" stroke-width="1.0192" stroke-miterlimit="10"/>
<path d="M0 734.843L58.24 759.304L116.48 734.843L174.72 759.304L232.96 734.843L291.2 759.304L349.434 734.843L407.674 759.304L465.914 734.843L524.154 759.304L582.394 734.843L640.634 759.304L698.874 734.843L757.12 759.304" stroke="#A0A3BD" stroke-width="1.0192" stroke-miterlimit="10"/>
<path d="M756.974 24.4608L815.214 0L873.454 24.4608L931.694 0L989.934 24.4608L1048.17 0L1106.41 24.4608L1164.65 0L1222.89 24.4608L1281.13 0L1339.37 24.4608L1397.61 0L1455.85 24.4608" stroke="#A0A3BD" stroke-width="1.0192" stroke-miterlimit="10"/>
<path d="M756.974 416.416L815.214 391.955L873.454 416.416L931.694 391.955L989.934 416.416L1048.17 391.955L1106.41 416.416L1164.65 391.955L1222.89 416.416L1281.13 391.955L1339.37 416.416L1397.61 391.955L1455.85 416.416" stroke="#A0A3BD" stroke-width="1.0192" stroke-miterlimit="10"/>
<path d="M756.974 808.371L815.214 783.91L873.454 808.371L931.694 783.91L989.934 808.371L1048.17 783.91L1106.41 808.371L1164.65 783.91L1222.89 808.371L1281.13 783.91L1339.37 808.371L1397.61 783.91L1455.85 808.371" stroke="#A0A3BD" stroke-width="1.0192" stroke-miterlimit="10"/>
<path d="M756.974 220.438L815.214 195.978L873.454 220.438L931.694 195.978L989.934 220.438L1048.17 195.978L1106.41 220.438L1164.65 195.978L1222.89 220.438L1281.13 195.978L1339.37 220.438L1397.61 195.978L1455.85 220.438" stroke="#A0A3BD" stroke-width="1.0192" stroke-miterlimit="10"/>
<path d="M756.974 612.394L815.214 587.933L873.454 612.394L931.694 587.933L989.934 612.394L1048.17 587.933L1106.41 612.394L1164.65 587.933L1222.89 612.394L1281.13 587.933L1339.37 612.394L1397.61 587.933L1455.85 612.394" stroke="#A0A3BD" stroke-width="1.0192" stroke-miterlimit="10"/>
<path d="M756.974 1004.35L815.214 979.888L873.454 1004.35L931.694 979.888L989.934 1004.35L1048.17 979.888L1106.41 1004.35L1164.65 979.888L1222.89 1004.35L1281.13 979.888L1339.37 1004.35L1397.61 979.888L1455.85 1004.35" stroke="#A0A3BD" stroke-width="1.0192" stroke-miterlimit="10"/>
<path d="M756.974 122.45L815.214 97.9888L873.454 122.45L931.694 97.9888L989.934 122.45L1048.17 97.9888L1106.41 122.45L1164.65 97.9888L1222.89 122.45L1281.13 97.9888L1339.37 122.45L1397.61 97.9888L1455.85 122.45" stroke="#A0A3BD" stroke-width="1.0192" stroke-miterlimit="10"/>
<path d="M756.974 514.405L815.214 489.944L873.454 514.405L931.694 489.944L989.934 514.405L1048.17 489.944L1106.41 514.405L1164.65 489.944L1222.89 514.405L1281.13 489.944L1339.37 514.405L1397.61 489.944L1455.85 514.405" stroke="#A0A3BD" stroke-width="1.0192" stroke-miterlimit="10"/>
<path d="M756.974 906.36L815.214 881.899L873.454 906.36L931.694 881.899L989.934 906.36L1048.17 881.899L1106.41 906.36L1164.65 881.899L1222.89 906.36L1281.13 881.899L1339.37 906.36L1397.61 881.899L1455.85 906.36" stroke="#A0A3BD" stroke-width="1.0192" stroke-miterlimit="10"/>
<path d="M756.974 318.427L815.214 293.966L873.454 318.427L931.694 293.966L989.934 318.427L1048.17 293.966L1106.41 318.427L1164.65 293.966L1222.89 318.427L1281.13 293.966L1339.37 318.427L1397.61 293.966L1455.85 318.427" stroke="#A0A3BD" stroke-width="1.0192" stroke-miterlimit="10"/>
<path d="M756.974 710.382L815.214 685.922L873.454 710.382L931.694 685.922L989.934 710.382L1048.17 685.922L1106.41 710.382L1164.65 685.922L1222.89 710.382L1281.13 685.922L1339.37 710.382L1397.61 685.922L1455.85 710.382" stroke="#A0A3BD" stroke-width="1.0192" stroke-miterlimit="10"/>
<path d="M757.12 73.3824L815.36 48.9216L873.6 73.3824L931.84 48.9216L990.08 73.3824L1048.31 48.9216L1106.55 73.3824L1164.79 48.9216L1223.03 73.3824L1281.27 48.9216L1339.51 73.3824L1397.75 48.9216L1456 73.3824" stroke="#A0A3BD" stroke-width="1.0192" stroke-miterlimit="10"/>
<path d="M757.12 465.338L815.36 440.877L873.6 465.338L931.84 440.877L990.08 465.338L1048.31 440.877L1106.55 465.338L1164.79 440.877L1223.03 465.338L1281.27 440.877L1339.51 465.338L1397.75 440.877L1456 465.338" stroke="#A0A3BD" stroke-width="1.0192" stroke-miterlimit="10"/>
<path d="M757.12 857.293L815.36 832.832L873.6 857.293L931.84 832.832L990.08 857.293L1048.31 832.832L1106.55 857.293L1164.79 832.832L1223.03 857.293L1281.27 832.832L1339.51 857.293L1397.75 832.832L1456 857.293" stroke="#A0A3BD" stroke-width="1.0192" stroke-miterlimit="10"/>
<path d="M757.12 269.36L815.36 244.899L873.6 269.36L931.84 244.899L990.08 269.36L1048.31 244.899L1106.55 269.36L1164.79 244.899L1223.03 269.36L1281.27 244.899L1339.51 269.36L1397.75 244.899L1456 269.36" stroke="#A0A3BD" stroke-width="1.0192" stroke-miterlimit="10"/>
<path d="M757.12 661.315L815.36 636.854L873.6 661.315L931.84 636.854L990.08 661.315L1048.31 636.854L1106.55 661.315L1164.79 636.854L1223.03 661.315L1281.27 636.854L1339.51 661.315L1397.75 636.854L1456 661.315" stroke="#A0A3BD" stroke-width="1.0192" stroke-miterlimit="10"/>
<path d="M757.12 171.371L815.36 146.91L873.6 171.371L931.84 146.91L990.08 171.371L1048.31 146.91L1106.55 171.371L1164.79 146.91L1223.03 171.371L1281.27 146.91L1339.51 171.371L1397.75 146.91L1456 171.371" stroke="#A0A3BD" stroke-width="1.0192" stroke-miterlimit="10"/>
<path d="M757.12 563.326L815.36 538.865L873.6 563.326L931.84 538.865L990.08 563.326L1048.31 538.865L1106.55 563.326L1164.79 538.865L1223.03 563.326L1281.27 538.865L1339.51 563.326L1397.75 538.865L1456 563.326" stroke="#A0A3BD" stroke-width="1.0192" stroke-miterlimit="10"/>
<path d="M757.12 955.282L815.36 930.821L873.6 955.282L931.84 930.821L990.08 955.282L1048.31 930.821L1106.55 955.282L1164.79 930.821L1223.03 955.282L1281.27 930.821L1339.51 955.282L1397.75 930.821L1456 955.282" stroke="#A0A3BD" stroke-width="1.0192" stroke-miterlimit="10"/>
<path d="M757.12 367.349L815.36 342.888L873.6 367.349L931.84 342.888L990.08 367.349L1048.31 342.888L1106.55 367.349L1164.79 342.888L1223.03 367.349L1281.27 342.888L1339.51 367.349L1397.75 342.888L1456 367.349" stroke="#A0A3BD" stroke-width="1.0192" stroke-miterlimit="10"/>
<path d="M757.12 759.304L815.36 734.843L873.6 759.304L931.84 734.843L990.08 759.304L1048.31 734.843L1106.55 759.304L1164.79 734.843L1223.03 759.304L1281.27 734.843L1339.51 759.304L1397.75 734.843L1456 759.304" stroke="#A0A3BD" stroke-width="1.0192" stroke-miterlimit="10"/>
<path d="M0 48.9216L58.24 24.4608L116.48 48.9216L174.72 24.4608L232.96 48.9216L291.2 24.4608L349.434 48.9216L407.674 24.4608L465.914 48.9216L524.154 24.4608L582.394 48.9216L640.634 24.4608L698.874 48.9216L757.12 24.4608" stroke="#A0A3BD" stroke-width="1.0192" stroke-miterlimit="10"/>
<path d="M0 440.877L58.24 416.416L116.48 440.877L174.72 416.416L232.96 440.877L291.2 416.416L349.434 440.877L407.674 416.416L465.914 440.877L524.154 416.416L582.394 440.877L640.634 416.416L698.874 440.877L757.12 416.416" stroke="#A0A3BD" stroke-width="1.0192" stroke-miterlimit="10"/>
<path d="M0 832.832L58.24 808.371L116.48 832.832L174.72 808.371L232.96 832.832L291.2 808.371L349.434 832.832L407.674 808.371L465.914 832.832L524.154 808.371L582.394 832.832L640.634 808.371L698.874 832.832L757.12 808.371" stroke="#A0A3BD" stroke-width="1.0192" stroke-miterlimit="10"/>
<path d="M0 244.899L58.24 220.438L116.48 244.899L174.72 220.438L232.96 244.899L291.2 220.438L349.434 244.899L407.674 220.438L465.914 244.899L524.154 220.438L582.394 244.899L640.634 220.438L698.874 244.899L757.12 220.438" stroke="#A0A3BD" stroke-width="1.0192" stroke-miterlimit="10"/>
<path d="M0 636.854L58.24 612.394L116.48 636.854L174.72 612.394L232.96 636.854L291.2 612.394L349.434 636.854L407.674 612.394L465.914 636.854L524.154 612.394L582.394 636.854L640.634 612.394L698.874 636.854L757.12 612.394" stroke="#A0A3BD" stroke-width="1.0192" stroke-miterlimit="10"/>
<path d="M0 1028.81L58.24 1004.35L116.48 1028.81L174.72 1004.35L232.96 1028.81L291.2 1004.35L349.434 1028.81L407.674 1004.35L465.914 1028.81L524.154 1004.35L582.394 1028.81L640.634 1004.35L698.874 1028.81L757.12 1004.35" stroke="#A0A3BD" stroke-width="1.0192" stroke-miterlimit="10"/>
<path d="M0 146.91L58.24 122.45L116.48 146.91L174.72 122.45L232.96 146.91L291.2 122.45L349.434 146.91L407.674 122.45L465.914 146.91L524.154 122.45L582.394 146.91L640.634 122.45L698.874 146.91L757.12 122.45" stroke="#A0A3BD" stroke-width="1.0192" stroke-miterlimit="10"/>
<path d="M0 538.865L58.24 514.405L116.48 538.865L174.72 514.405L232.96 538.865L291.2 514.405L349.434 538.865L407.674 514.405L465.914 538.865L524.154 514.405L582.394 538.865L640.634 514.405L698.874 538.865L757.12 514.405" stroke="#A0A3BD" stroke-width="1.0192" stroke-miterlimit="10"/>
<path d="M0 930.821L58.24 906.36L116.48 930.821L174.72 906.36L232.96 930.821L291.2 906.36L349.434 930.821L407.674 906.36L465.914 930.821L524.154 906.36L582.394 930.821L640.634 906.36L698.874 930.821L757.12 906.36" stroke="#A0A3BD" stroke-width="1.0192" stroke-miterlimit="10"/>
<path d="M0 342.888L58.24 318.427L116.48 342.888L174.72 318.427L232.96 342.888L291.2 318.427L349.434 342.888L407.674 318.427L465.914 342.888L524.154 318.427L582.394 342.888L640.634 318.427L698.874 342.888L757.12 318.427" stroke="#A0A3BD" stroke-width="1.0192" stroke-miterlimit="10"/>
<path d="M0 734.843L58.24 710.382L116.48 734.843L174.72 710.382L232.96 734.843L291.2 710.382L349.434 734.843L407.674 710.382L465.914 734.843L524.154 710.382L582.394 734.843L640.634 710.382L698.874 734.843L757.12 710.382" stroke="#A0A3BD" stroke-width="1.0192" stroke-miterlimit="10"/>
<path d="M0 97.8432L58.24 73.3824L116.48 97.8432L174.72 73.3824L232.96 97.8432L291.2 73.3824L349.434 97.8432L407.674 73.3824L465.914 97.8432L524.154 73.3824L582.394 97.8432L640.634 73.3824L698.874 97.8432L757.12 73.3824" stroke="#A0A3BD" stroke-width="1.0192" stroke-miterlimit="10"/>
<path d="M0 489.798L58.24 465.338L116.48 489.798L174.72 465.338L232.96 489.798L291.2 465.338L349.434 489.798L407.674 465.338L465.914 489.798L524.154 465.338L582.394 489.798L640.634 465.338L698.874 489.798L757.12 465.338" stroke="#A0A3BD" stroke-width="1.0192" stroke-miterlimit="10"/>
<path d="M0 881.754L58.24 857.293L116.48 881.754L174.72 857.293L232.96 881.754L291.2 857.293L349.434 881.754L407.674 857.293L465.914 881.754L524.154 857.293L582.394 881.754L640.634 857.293L698.874 881.754L757.12 857.293" stroke="#A0A3BD" stroke-width="1.0192" stroke-miterlimit="10"/>
<path d="M0 293.821L58.24 269.36L116.48 293.821L174.72 269.36L232.96 293.821L291.2 269.36L349.434 293.821L407.674 269.36L465.914 293.821L524.154 269.36L582.394 293.821L640.634 269.36L698.874 293.821L757.12 269.36" stroke="#A0A3BD" stroke-width="1.0192" stroke-miterlimit="10"/>
<path d="M0 685.776L58.24 661.315L116.48 685.776L174.72 661.315L232.96 685.776L291.2 661.315L349.434 685.776L407.674 661.315L465.914 685.776L524.154 661.315L582.394 685.776L640.634 661.315L698.874 685.776L757.12 661.315" stroke="#A0A3BD" stroke-width="1.0192" stroke-miterlimit="10"/>
<path d="M0 195.832L58.24 171.371L116.48 195.832L174.72 171.371L232.96 195.832L291.2 171.371L349.434 195.832L407.674 171.371L465.914 195.832L524.154 171.371L582.394 195.832L640.634 171.371L698.874 195.832L757.12 171.371" stroke="#A0A3BD" stroke-width="1.0192" stroke-miterlimit="10"/>
<path d="M0 587.787L58.24 563.326L116.48 587.787L174.72 563.326L232.96 587.787L291.2 563.326L349.434 587.787L407.674 563.326L465.914 587.787L524.154 563.326L582.394 587.787L640.634 563.326L698.874 587.787L757.12 563.326" stroke="#A0A3BD" stroke-width="1.0192" stroke-miterlimit="10"/>
<path d="M0 979.742L58.24 955.282L116.48 979.742L174.72 955.282L232.96 979.742L291.2 955.282L349.434 979.742L407.674 955.282L465.914 979.742L524.154 955.282L582.394 979.742L640.634 955.282L698.874 979.742L757.12 955.282" stroke="#A0A3BD" stroke-width="1.0192" stroke-miterlimit="10"/>
<path d="M0 391.81L58.24 367.349L116.48 391.81L174.72 367.349L232.96 391.81L291.2 367.349L349.434 391.81L407.674 367.349L465.914 391.81L524.154 367.349L582.394 391.81L640.634 367.349L698.874 391.81L757.12 367.349" stroke="#A0A3BD" stroke-width="1.0192" stroke-miterlimit="10"/>
<path d="M0 783.765L58.24 759.304L116.48 783.765L174.72 759.304L232.96 783.765L291.2 759.304L349.434 783.765L407.674 759.304L465.914 783.765L524.154 759.304L582.394 783.765L640.634 759.304L698.874 783.765L757.12 759.304" stroke="#A0A3BD" stroke-width="1.0192" stroke-miterlimit="10"/>
<path d="M756.974 24.4608L815.214 48.9216L873.454 24.4608L931.694 48.9216L989.934 24.4608L1048.17 48.9216L1106.41 24.4608L1164.65 48.9216L1222.89 24.4608L1281.13 48.9216L1339.37 24.4608L1397.61 48.9216L1455.85 24.4608" stroke="#A0A3BD" stroke-width="1.0192" stroke-miterlimit="10"/>
<path d="M756.974 416.416L815.214 440.877L873.454 416.416L931.694 440.877L989.934 416.416L1048.17 440.877L1106.41 416.416L1164.65 440.877L1222.89 416.416L1281.13 440.877L1339.37 416.416L1397.61 440.877L1455.85 416.416" stroke="#A0A3BD" stroke-width="1.0192" stroke-miterlimit="10"/>
<path d="M756.974 808.371L815.214 832.832L873.454 808.371L931.694 832.832L989.934 808.371L1048.17 832.832L1106.41 808.371L1164.65 832.832L1222.89 808.371L1281.13 832.832L1339.37 808.371L1397.61 832.832L1455.85 808.371" stroke="#A0A3BD" stroke-width="1.0192" stroke-miterlimit="10"/>
<path d="M756.974 220.438L815.214 244.899L873.454 220.438L931.694 244.899L989.934 220.438L1048.17 244.899L1106.41 220.438L1164.65 244.899L1222.89 220.438L1281.13 244.899L1339.37 220.438L1397.61 244.899L1455.85 220.438" stroke="#A0A3BD" stroke-width="1.0192" stroke-miterlimit="10"/>
<path d="M756.974 612.394L815.214 636.854L873.454 612.394L931.694 636.854L989.934 612.394L1048.17 636.854L1106.41 612.394L1164.65 636.854L1222.89 612.394L1281.13 636.854L1339.37 612.394L1397.61 636.854L1455.85 612.394" stroke="#A0A3BD" stroke-width="1.0192" stroke-miterlimit="10"/>
<path d="M756.974 1004.35L815.214 1028.81L873.454 1004.35L931.694 1028.81L989.934 1004.35L1048.17 1028.81L1106.41 1004.35L1164.65 1028.81L1222.89 1004.35L1281.13 1028.81L1339.37 1004.35L1397.61 1028.81L1455.85 1004.35" stroke="#A0A3BD" stroke-width="1.0192" stroke-miterlimit="10"/>
<path d="M756.974 122.45L815.214 146.91L873.454 122.45L931.694 146.91L989.934 122.45L1048.17 146.91L1106.41 122.45L1164.65 146.91L1222.89 122.45L1281.13 146.91L1339.37 122.45L1397.61 146.91L1455.85 122.45" stroke="#A0A3BD" stroke-width="1.0192" stroke-miterlimit="10"/>
<path d="M756.974 514.405L815.214 538.865L873.454 514.405L931.694 538.865L989.934 514.405L1048.17 538.865L1106.41 514.405L1164.65 538.865L1222.89 514.405L1281.13 538.865L1339.37 514.405L1397.61 538.865L1455.85 514.405" stroke="#A0A3BD" stroke-width="1.0192" stroke-miterlimit="10"/>
<path d="M756.974 906.36L815.214 930.821L873.454 906.36L931.694 930.821L989.934 906.36L1048.17 930.821L1106.41 906.36L1164.65 930.821L1222.89 906.36L1281.13 930.821L1339.37 906.36L1397.61 930.821L1455.85 906.36" stroke="#A0A3BD" stroke-width="1.0192" stroke-miterlimit="10"/>
<path d="M756.974 318.427L815.214 342.888L873.454 318.427L931.694 342.888L989.934 318.427L1048.17 342.888L1106.41 318.427L1164.65 342.888L1222.89 318.427L1281.13 342.888L1339.37 318.427L1397.61 342.888L1455.85 318.427" stroke="#A0A3BD" stroke-width="1.0192" stroke-miterlimit="10"/>
<path d="M756.974 710.382L815.214 734.843L873.454 710.382L931.694 734.843L989.934 710.382L1048.17 734.843L1106.41 710.382L1164.65 734.843L1222.89 710.382L1281.13 734.843L1339.37 710.382L1397.61 734.843L1455.85 710.382" stroke="#A0A3BD" stroke-width="1.0192" stroke-miterlimit="10"/>
<path d="M757.12 73.3824L815.36 97.8432L873.6 73.3824L931.84 97.8432L990.08 73.3824L1048.31 97.8432L1106.55 73.3824L1164.79 97.8432L1223.03 73.3824L1281.27 97.8432L1339.51 73.3824L1397.75 97.8432L1456 73.3824" stroke="#A0A3BD" stroke-width="1.0192" stroke-miterlimit="10"/>
<path d="M757.12 465.338L815.36 489.798L873.6 465.338L931.84 489.798L990.08 465.338L1048.31 489.798L1106.55 465.338L1164.79 489.798L1223.03 465.338L1281.27 489.798L1339.51 465.338L1397.75 489.798L1456 465.338" stroke="#A0A3BD" stroke-width="1.0192" stroke-miterlimit="10"/>
<path d="M757.12 857.293L815.36 881.754L873.6 857.293L931.84 881.754L990.08 857.293L1048.31 881.754L1106.55 857.293L1164.79 881.754L1223.03 857.293L1281.27 881.754L1339.51 857.293L1397.75 881.754L1456 857.293" stroke="#A0A3BD" stroke-width="1.0192" stroke-miterlimit="10"/>
<path d="M757.12 269.36L815.36 293.821L873.6 269.36L931.84 293.821L990.08 269.36L1048.31 293.821L1106.55 269.36L1164.79 293.821L1223.03 269.36L1281.27 293.821L1339.51 269.36L1397.75 293.821L1456 269.36" stroke="#A0A3BD" stroke-width="1.0192" stroke-miterlimit="10"/>
<path d="M757.12 661.315L815.36 685.776L873.6 661.315L931.84 685.776L990.08 661.315L1048.31 685.776L1106.55 661.315L1164.79 685.776L1223.03 661.315L1281.27 685.776L1339.51 661.315L1397.75 685.776L1456 661.315" stroke="#A0A3BD" stroke-width="1.0192" stroke-miterlimit="10"/>
<path d="M757.12 171.371L815.36 195.832L873.6 171.371L931.84 195.832L990.08 171.371L1048.31 195.832L1106.55 171.371L1164.79 195.832L1223.03 171.371L1281.27 195.832L1339.51 171.371L1397.75 195.832L1456 171.371" stroke="#A0A3BD" stroke-width="1.0192" stroke-miterlimit="10"/>
<path d="M757.12 563.326L815.36 587.787L873.6 563.326L931.84 587.787L990.08 563.326L1048.31 587.787L1106.55 563.326L1164.79 587.787L1223.03 563.326L1281.27 587.787L1339.51 563.326L1397.75 587.787L1456 563.326" stroke="#A0A3BD" stroke-width="1.0192" stroke-miterlimit="10"/>
<path d="M757.12 955.282L815.36 979.742L873.6 955.282L931.84 979.742L990.08 955.282L1048.31 979.742L1106.55 955.282L1164.79 979.742L1223.03 955.282L1281.27 979.742L1339.51 955.282L1397.75 979.742L1456 955.282" stroke="#A0A3BD" stroke-width="1.0192" stroke-miterlimit="10"/>
<path d="M757.12 367.349L815.36 391.81L873.6 367.349L931.84 391.81L990.08 367.349L1048.31 391.81L1106.55 367.349L1164.79 391.81L1223.03 367.349L1281.27 391.81L1339.51 367.349L1397.75 391.81L1456 367.349" stroke="#A0A3BD" stroke-width="1.0192" stroke-miterlimit="10"/>
<path d="M757.12 759.304L815.36 783.765L873.6 759.304L931.84 783.765L990.08 759.304L1048.31 783.765L1106.55 759.304L1164.79 783.765L1223.03 759.304L1281.27 783.765L1339.51 759.304L1397.75 783.765L1456 759.304" stroke="#A0A3BD" stroke-width="1.0192" stroke-miterlimit="10"/>
</g>
<defs>
<clipPath id="clip0_1278_3173">
<rect width="1440" height="1024" fill="white"/>
</clipPath>
</defs>
</svg>
