<svg width="40" height="40" viewBox="0 0 40 40" fill="none" xmlns="http://www.w3.org/2000/svg">
<circle cx="20" cy="20" r="20" fill="white" fill-opacity="0.1"/>
<path d="M14.7026 18.0247C14.7026 17.7154 15.1092 17.5785 15.3113 17.8199L19.7287 23.0949C19.9767 23.3912 20.1351 23.7468 20.1865 24.1232L20.7679 28.3763C20.843 28.9263 20.1131 29.2205 19.7549 28.7846L15.1663 23.1997C14.8659 22.8342 14.7026 22.3825 14.7026 21.9174V18.0247Z" fill="white"/>
<path d="M19.6552 28.4532C19.6552 28.9844 20.3671 29.2025 20.689 28.77L29.5978 16.8039C29.8903 16.4108 30.0306 15.9324 29.9944 15.451L29.6825 11.3044C29.6594 10.9964 29.2448 10.8875 29.0607 11.1409L20.0428 23.5598C19.7904 23.9073 19.6552 24.3204 19.6552 24.7438V28.4532Z" fill="white"/>
<path d="M10 21.6227C10 20.9094 10.3827 20.2463 11.0134 19.8668L14.0425 18.044C14.1184 17.9983 14.2171 18.0506 14.2171 18.1364V22.3803C14.2171 22.4181 14.1966 22.4534 14.1628 22.4732L11.042 24.3108C10.5864 24.5791 10 24.2651 10 23.753V21.6227Z" fill="#9FFE87"/>
</svg>
