<svg width="122" height="42" viewBox="0 0 122 42" fill="none" xmlns="http://www.w3.org/2000/svg">
<path d="M10.6688 16.5007C10.6688 15.7961 11.5481 15.4843 11.9851 16.0341L21.5371 28.0495C22.0734 28.7242 22.4159 29.5344 22.5271 30.3917L23.7842 40.0793C23.9466 41.3321 22.3681 42.0023 21.5938 41.0093L11.6714 28.2881C11.0219 27.4555 10.6688 26.4267 10.6688 25.3672V16.5007Z" fill="white"/>
<path d="M21.3781 40.2545C21.3781 41.4644 22.9174 41.9613 23.6136 40.9761L42.8775 13.7199C43.5101 12.8247 43.8135 11.7349 43.7352 10.6383L43.0607 1.19324C43.0107 0.491827 42.1143 0.243652 41.7162 0.821013L22.2162 29.1084C21.6704 29.9 21.3781 30.841 21.3781 31.8053V40.2545Z" fill="white"/>
<path d="M0.5 24.6961C0.5 23.0715 1.32767 21.561 2.69117 20.6966L9.24137 16.5447C9.40545 16.4406 9.61888 16.5596 9.61888 16.7551V26.4217C9.61888 26.508 9.57452 26.5882 9.50156 26.6334L2.7532 30.8191C1.76803 31.4301 0.5 30.715 0.5 29.5484V24.6961Z" fill="#9FFE87"/>
<path d="M54.8885 22.7849C54.6794 24.0204 54.2743 25.0695 53.6731 25.9321C53.0755 26.7948 52.3456 27.4502 51.4828 27.8985C50.624 28.3467 49.698 28.5708 48.7046 28.5708C47.6628 28.5708 46.7648 28.3317 46.0104 27.8532C45.2599 27.3748 44.7165 26.6835 44.3804 25.7796C44.0444 24.8717 43.9809 23.7774 44.19 22.4966C44.3917 21.2574 44.7932 20.2063 45.3942 19.3438C45.9954 18.4773 46.7293 17.8181 47.5957 17.3661C48.4619 16.9104 49.3936 16.6825 50.3906 16.6825C51.425 16.6825 52.3174 16.9235 53.0681 17.4057C53.8224 17.8878 54.3657 18.5848 54.6981 19.4964C55.0341 20.4041 55.0976 21.5004 54.8885 22.7849ZM52.4743 22.4966C52.6051 21.7019 52.5995 21.0351 52.4576 20.4964C52.3194 19.9541 52.0654 19.5434 51.6958 19.2647C51.3262 18.9859 50.8593 18.8465 50.2955 18.8465C49.683 18.8465 49.121 19.001 48.6095 19.3098C48.1016 19.6188 47.6722 20.0671 47.3212 20.6546C46.9739 21.2385 46.733 21.9486 46.5986 22.7849C46.4641 23.5835 46.4679 24.2501 46.6099 24.7851C46.7555 25.3199 47.015 25.7249 47.3884 25.9999C47.7655 26.2711 48.2342 26.4066 48.7943 26.4066C49.4029 26.4066 49.9593 26.256 50.4634 25.9546C50.9713 25.6495 51.399 25.2069 51.7461 24.6269C52.0934 24.0429 52.3362 23.333 52.4743 22.4966ZM58.4636 23.3951L57.6346 28.4126H55.2542L56.688 19.7336H58.9565L58.7101 21.2648H58.8053C59.0778 20.7564 59.4626 20.3552 59.9592 20.0614C60.4595 19.7675 61.0291 19.6206 61.6676 19.6206C62.2651 19.6206 62.7636 19.7525 63.1632 20.0162C63.5664 20.2798 63.8502 20.6546 64.0145 21.1406C64.1826 21.6265 64.2105 22.2085 64.0985 22.8865L63.1799 28.4126H60.7938L61.6396 23.316C61.7254 22.7849 61.6583 22.3705 61.4379 22.0728C61.2213 21.7716 60.8722 21.6208 60.3906 21.6208C60.0693 21.6208 59.7744 21.6905 59.5055 21.83C59.2366 21.9692 59.0107 22.1727 58.8278 22.4402C58.6484 22.7038 58.5271 23.0222 58.4636 23.3951ZM68.4748 28.5821C67.5934 28.5821 66.8634 28.4012 66.2846 28.0397C65.7058 27.6743 65.2987 27.1582 65.0635 26.4914C64.832 25.8209 64.7928 25.028 64.9458 24.1126C65.0953 23.2198 65.3958 22.4365 65.8477 21.762C66.3032 21.0878 66.8745 20.5623 67.5617 20.1857C68.2488 19.809 69.0143 19.6206 69.8582 19.6206C70.4258 19.6206 70.9393 19.713 71.3986 19.8975C71.8616 20.0782 72.2462 20.3534 72.5524 20.7225C72.8587 21.0878 73.0678 21.5454 73.1798 22.0955C73.2955 22.6454 73.2936 23.2895 73.1742 24.0278L73.0678 24.689H65.8085L66.0382 23.1973H71.0569C71.1129 22.8507 71.0905 22.5438 70.9896 22.2763C70.8888 22.0088 70.7207 21.7998 70.4856 21.649C70.2503 21.4947 69.9609 21.4174 69.6173 21.4174C69.2663 21.4174 68.9378 21.5041 68.6315 21.6774C68.3253 21.8507 68.0677 22.0785 67.8586 22.3611C67.6532 22.6398 67.5206 22.9431 67.4608 23.2707L67.1976 24.7512C67.1228 25.2069 67.1378 25.5855 67.2424 25.8869C67.3507 26.1883 67.5375 26.4143 67.8025 26.5649C68.0677 26.7117 68.4037 26.7853 68.8108 26.7853C69.0758 26.7853 69.3243 26.7476 69.5557 26.6722C69.791 26.597 70.0001 26.4857 70.1831 26.3389C70.366 26.1883 70.5155 26.0018 70.6312 25.7796L72.8102 25.9264C72.6085 26.4613 72.3023 26.9283 71.8915 27.3276C71.4807 27.7232 70.9859 28.0321 70.4072 28.2543C69.8321 28.4729 69.1878 28.5821 68.4748 28.5821ZM84.9384 20.8919H82.5187C82.5261 20.568 82.4851 20.2817 82.3954 20.0332C82.3058 19.7808 82.1714 19.5659 81.9922 19.3889C81.8165 19.2119 81.6018 19.0781 81.3479 18.9878C81.094 18.8936 80.8084 18.8465 80.491 18.8465C79.8785 18.8465 79.3167 19.001 78.8049 19.3098C78.2934 19.6188 77.862 20.0671 77.511 20.6546C77.16 21.2385 76.9174 21.9447 76.783 22.7735C76.6522 23.5721 76.6597 24.2407 76.8053 24.7794C76.9509 25.318 77.2086 25.7249 77.5784 25.9999C77.9517 26.2711 78.4167 26.4066 78.973 26.4066C79.3167 26.4066 79.6434 26.3633 79.9532 26.2768C80.2633 26.1863 80.5452 26.0582 80.7991 25.8925C81.0567 25.723 81.2807 25.5177 81.4712 25.2767C81.6653 25.0356 81.8165 24.7624 81.9249 24.4573H84.3614C84.2084 24.9884 83.9695 25.5007 83.6445 25.9942C83.3234 26.4877 82.9256 26.9283 82.4514 27.3165C81.9773 27.7007 81.4376 28.0058 80.8327 28.2318C80.2277 28.4578 79.565 28.5708 78.8442 28.5708C77.8024 28.5708 76.908 28.3297 76.1612 27.8476C75.4181 27.3654 74.8822 26.6704 74.5536 25.7625C74.2249 24.8548 74.1634 23.7605 74.3688 22.4797C74.5742 21.2403 74.9756 20.1895 75.573 19.3268C76.1742 18.4604 76.9043 17.803 77.7632 17.3548C78.6257 16.9065 79.5481 16.6825 80.5302 16.6825C81.2136 16.6825 81.8315 16.7767 82.3842 16.965C82.9369 17.1533 83.4075 17.4282 83.7957 17.7899C84.1879 18.1477 84.4828 18.5866 84.6808 19.1065C84.8786 19.6263 84.9646 20.2214 84.9384 20.8919ZM88.1593 23.3951L87.3303 28.4126H84.9497L86.8541 16.8407H89.1676L88.4505 21.2648H88.5458C88.822 20.7525 89.2012 20.3514 89.6828 20.0614C90.1645 19.7675 90.7341 19.6206 91.3912 19.6206C91.9887 19.6206 92.4873 19.7525 92.8868 20.0162C93.29 20.276 93.5758 20.6509 93.7437 21.1406C93.9118 21.6265 93.9398 22.2085 93.8278 22.8865L92.9092 28.4126H90.5287L91.3689 23.316C91.4547 22.7811 91.3856 22.3648 91.1616 22.0673C90.9412 21.7697 90.5902 21.6208 90.1086 21.6208C89.7836 21.6208 89.485 21.6905 89.2123 21.83C88.9397 21.9692 88.71 22.1727 88.5234 22.4402C88.3404 22.7038 88.2191 23.0222 88.1593 23.3951ZM98.2011 28.5821C97.3199 28.5821 96.5898 28.4012 96.0111 28.0397C95.4322 27.6743 95.0253 27.1582 94.79 26.4914C94.5584 25.8209 94.5192 25.028 94.6723 24.1126C94.8216 23.2198 95.1223 22.4365 95.5741 21.762C96.0297 21.0878 96.6011 20.5623 97.2881 20.1857C97.9752 19.809 98.7408 19.6206 99.5847 19.6206C100.152 19.6206 100.666 19.713 101.125 19.8975C101.588 20.0782 101.973 20.3534 102.279 20.7225C102.585 21.0878 102.794 21.5454 102.906 22.0955C103.022 22.6454 103.02 23.2895 102.901 24.0278L102.794 24.689H95.5349L95.7645 23.1973H100.783C100.839 22.8507 100.817 22.5438 100.716 22.2763C100.615 22.0088 100.447 21.7998 100.212 21.649C99.9767 21.4947 99.6874 21.4174 99.3438 21.4174C98.9928 21.4174 98.6641 21.5041 98.358 21.6774C98.0518 21.8507 97.794 22.0785 97.5849 22.3611C97.3796 22.6398 97.247 22.9431 97.1873 23.2707L96.9241 24.7512C96.8494 25.2069 96.8643 25.5855 96.9688 25.8869C97.0771 26.1883 97.2638 26.4143 97.529 26.5649C97.794 26.7117 98.1302 26.7853 98.5372 26.7853C98.8024 26.7853 99.0507 26.7476 99.2822 26.6722C99.5174 26.597 99.7266 26.4857 99.9095 26.3389C100.093 26.1883 100.242 26.0018 100.358 25.7796L102.537 25.9264C102.335 26.4613 102.029 26.9283 101.618 27.3276C101.207 27.7232 100.712 28.0321 100.134 28.2543C99.5585 28.4729 98.9144 28.5821 98.2011 28.5821ZM107.137 28.5821C106.252 28.5821 105.524 28.3937 104.952 28.017C104.385 27.6366 103.987 27.1093 103.759 26.435C103.535 25.7607 103.496 24.9847 103.641 24.1069C103.783 23.218 104.08 22.4382 104.532 21.7677C104.984 21.0934 105.557 20.568 106.252 20.1912C106.95 19.8109 107.734 19.6206 108.604 19.6206C109.355 19.6206 109.99 19.7581 110.509 20.0332C111.028 20.3081 111.409 20.6941 111.651 21.1914C111.894 21.6886 111.976 22.2726 111.898 22.9431H109.652C109.655 22.5136 109.545 22.1652 109.321 21.8977C109.097 21.6302 108.769 21.4965 108.335 21.4965C107.962 21.4965 107.618 21.5983 107.305 21.8016C106.995 22.0013 106.732 22.2933 106.515 22.6775C106.302 23.0618 106.153 23.5269 106.067 24.0731C105.977 24.6269 105.975 25.0977 106.061 25.4856C106.147 25.8737 106.312 26.1695 106.554 26.3728C106.797 26.5762 107.103 26.6779 107.473 26.6779C107.749 26.6779 108.005 26.6214 108.24 26.5084C108.479 26.3954 108.688 26.2315 108.868 26.0169C109.047 25.7984 109.185 25.5365 109.282 25.2314H111.534C111.381 25.8982 111.102 26.482 110.699 26.983C110.3 27.4841 109.797 27.8758 109.192 28.1583C108.587 28.4408 107.902 28.5821 107.137 28.5821ZM114.627 25.9151L115.103 23.0277H115.451L118.761 19.7336H121.5L117.086 24.0958H116.515L114.627 25.9151ZM112.056 28.4126L113.961 16.8407H116.347L114.442 28.4126H112.056ZM117.433 28.4126L115.529 24.6325L117.394 22.9317L120.229 28.4126H117.433Z" fill="white"/>
</svg>
