<svg width="17" height="16" viewBox="0 0 17 16" fill="none" xmlns="http://www.w3.org/2000/svg">
<path d="M10.12 12.5467C9.99334 12.5467 9.86667 12.5 9.76667 12.4C9.57334 12.2067 9.57334 11.8867 9.76667 11.6933L13.46 7.99999L9.76667 4.30665C9.57334 4.11332 9.57334 3.79332 9.76667 3.59999C9.96001 3.40665 10.28 3.40665 10.4733 3.59999L14.52 7.64665C14.7133 7.83999 14.7133 8.15999 14.52 8.35332L10.4733 12.4C10.3733 12.5 10.2467 12.5467 10.12 12.5467Z" fill="#292D32"/>
<path d="M14.0533 8.5H2.83334C2.56001 8.5 2.33334 8.27333 2.33334 8C2.33334 7.72667 2.56001 7.5 2.83334 7.5H14.0533C14.3267 7.5 14.5533 7.72667 14.5533 8C14.5533 8.27333 14.3267 8.5 14.0533 8.5Z" fill="#292D32"/>
</svg>
